<mxfile host="app.diagrams.net" modified="2022-04-06T13:07:09.756Z" agent="5.0 (Windows NT 10.0; Win64; x64) AppleWebKit/537.36 (KHTML, like Gecko) Chrome/99.0.4844.84 Safari/537.36" etag="-_tc8Y53sggJc5WI33KW" version="17.4.0" type="github">
  <diagram id="Zr0Yv7qYUi1ScYz8-S9F" name="第1頁">
    <mxGraphModel dx="1038" dy="547" grid="1" gridSize="10" guides="1" tooltips="1" connect="1" arrows="1" fold="1" page="1" pageScale="1" pageWidth="827" pageHeight="1169" math="0" shadow="0">
      <root>
        <mxCell id="0" />
        <mxCell id="1" parent="0" />
        <mxCell id="sEIijlILCAp8ABGwAB-L-3" value="" style="edgeStyle=orthogonalEdgeStyle;rounded=0;orthogonalLoop=1;jettySize=auto;html=1;fontSize=12;" edge="1" parent="1" source="sEIijlILCAp8ABGwAB-L-4" target="sEIijlILCAp8ABGwAB-L-7">
          <mxGeometry relative="1" as="geometry" />
        </mxCell>
        <mxCell id="sEIijlILCAp8ABGwAB-L-4" value="&lt;font style=&quot;font-size: 12px;&quot;&gt;定義腳位：&lt;br style=&quot;font-size: 12px;&quot;&gt;窗、光感、CO、聲感峰值、PIR&lt;br style=&quot;font-size: 12px;&quot;&gt;全域變數：聲音峰值&lt;br style=&quot;font-size: 12px;&quot;&gt;&lt;/font&gt;" style="rounded=0;whiteSpace=wrap;html=1;fontSize=12;" vertex="1" parent="1">
          <mxGeometry x="343.5" y="340" width="131" height="70" as="geometry" />
        </mxCell>
        <mxCell id="sEIijlILCAp8ABGwAB-L-5" style="edgeStyle=orthogonalEdgeStyle;rounded=0;orthogonalLoop=1;jettySize=auto;html=1;exitX=0.5;exitY=1;exitDx=0;exitDy=0;fontSize=12;" edge="1" parent="1" source="sEIijlILCAp8ABGwAB-L-7" target="sEIijlILCAp8ABGwAB-L-9">
          <mxGeometry relative="1" as="geometry">
            <Array as="points">
              <mxPoint x="409" y="520" />
              <mxPoint x="289" y="520" />
            </Array>
          </mxGeometry>
        </mxCell>
        <mxCell id="sEIijlILCAp8ABGwAB-L-6" style="edgeStyle=orthogonalEdgeStyle;rounded=0;orthogonalLoop=1;jettySize=auto;html=1;exitX=0.5;exitY=1;exitDx=0;exitDy=0;fontSize=12;" edge="1" parent="1" source="sEIijlILCAp8ABGwAB-L-7">
          <mxGeometry relative="1" as="geometry">
            <mxPoint x="529.0344827586207" y="550" as="targetPoint" />
            <Array as="points">
              <mxPoint x="409" y="520" />
              <mxPoint x="529" y="520" />
            </Array>
          </mxGeometry>
        </mxCell>
        <mxCell id="sEIijlILCAp8ABGwAB-L-7" value="&lt;font style=&quot;font-size: 12px;&quot;&gt;初始化：腳位、串口參數&lt;br style=&quot;font-size: 12px;&quot;&gt;&lt;/font&gt;" style="rounded=0;whiteSpace=wrap;html=1;fontSize=12;" vertex="1" parent="1">
          <mxGeometry x="343.5" y="440" width="131" height="70" as="geometry" />
        </mxCell>
        <mxCell id="sEIijlILCAp8ABGwAB-L-8" value="" style="edgeStyle=orthogonalEdgeStyle;rounded=0;orthogonalLoop=1;jettySize=auto;html=1;fontSize=12;" edge="1" parent="1" source="sEIijlILCAp8ABGwAB-L-9" target="sEIijlILCAp8ABGwAB-L-17">
          <mxGeometry relative="1" as="geometry" />
        </mxCell>
        <mxCell id="sEIijlILCAp8ABGwAB-L-9" value="&lt;font style=&quot;font-size: 12px;&quot;&gt;獲取聲感數值&lt;/font&gt;" style="rounded=0;whiteSpace=wrap;html=1;fontSize=12;" vertex="1" parent="1">
          <mxGeometry x="229" y="550" width="120" height="60" as="geometry" />
        </mxCell>
        <mxCell id="sEIijlILCAp8ABGwAB-L-10" style="edgeStyle=orthogonalEdgeStyle;rounded=0;orthogonalLoop=1;jettySize=auto;html=1;exitX=0.5;exitY=1;exitDx=0;exitDy=0;fontSize=12;entryX=0;entryY=0.5;entryDx=0;entryDy=0;" edge="1" parent="1" source="sEIijlILCAp8ABGwAB-L-11" target="sEIijlILCAp8ABGwAB-L-9">
          <mxGeometry relative="1" as="geometry">
            <mxPoint x="288.9999999999998" y="530" as="targetPoint" />
            <Array as="points">
              <mxPoint x="289" y="890" />
              <mxPoint x="179" y="890" />
              <mxPoint x="179" y="580" />
            </Array>
          </mxGeometry>
        </mxCell>
        <mxCell id="sEIijlILCAp8ABGwAB-L-11" value="&lt;font style=&quot;font-size: 12px;&quot;&gt;延遲10毫秒&lt;/font&gt;" style="rounded=0;whiteSpace=wrap;html=1;fontSize=12;" vertex="1" parent="1">
          <mxGeometry x="229" y="810" width="120" height="60" as="geometry" />
        </mxCell>
        <mxCell id="sEIijlILCAp8ABGwAB-L-12" value="" style="edgeStyle=orthogonalEdgeStyle;rounded=0;orthogonalLoop=1;jettySize=auto;html=1;fontSize=12;" edge="1" parent="1" source="sEIijlILCAp8ABGwAB-L-14" target="sEIijlILCAp8ABGwAB-L-21">
          <mxGeometry relative="1" as="geometry" />
        </mxCell>
        <mxCell id="sEIijlILCAp8ABGwAB-L-13" style="edgeStyle=orthogonalEdgeStyle;rounded=0;orthogonalLoop=1;jettySize=auto;html=1;exitX=0;exitY=0.5;exitDx=0;exitDy=0;fontSize=12;" edge="1" parent="1" source="sEIijlILCAp8ABGwAB-L-14">
          <mxGeometry relative="1" as="geometry">
            <mxPoint x="529" y="530" as="targetPoint" />
          </mxGeometry>
        </mxCell>
        <mxCell id="sEIijlILCAp8ABGwAB-L-14" value="&lt;font style=&quot;font-size: 12px;&quot;&gt;Master是否&lt;br style=&quot;font-size: 12px;&quot;&gt;onRequest&lt;br style=&quot;font-size: 12px;&quot;&gt;&lt;/font&gt;" style="rhombus;whiteSpace=wrap;html=1;fontSize=12;" vertex="1" parent="1">
          <mxGeometry x="469" y="550" width="120" height="60" as="geometry" />
        </mxCell>
        <mxCell id="sEIijlILCAp8ABGwAB-L-15" value="" style="edgeStyle=orthogonalEdgeStyle;rounded=0;orthogonalLoop=1;jettySize=auto;html=1;fontSize=12;" edge="1" parent="1" source="sEIijlILCAp8ABGwAB-L-17" target="sEIijlILCAp8ABGwAB-L-19">
          <mxGeometry relative="1" as="geometry" />
        </mxCell>
        <mxCell id="sEIijlILCAp8ABGwAB-L-16" style="edgeStyle=orthogonalEdgeStyle;rounded=0;orthogonalLoop=1;jettySize=auto;html=1;exitX=1;exitY=0.5;exitDx=0;exitDy=0;fontSize=12;" edge="1" parent="1" source="sEIijlILCAp8ABGwAB-L-17">
          <mxGeometry relative="1" as="geometry">
            <mxPoint x="288.9999999999998" y="790" as="targetPoint" />
            <Array as="points">
              <mxPoint x="379" y="660" />
              <mxPoint x="379" y="790" />
            </Array>
          </mxGeometry>
        </mxCell>
        <mxCell id="sEIijlILCAp8ABGwAB-L-17" value="是否超過峰值" style="rhombus;whiteSpace=wrap;html=1;fontSize=12;" vertex="1" parent="1">
          <mxGeometry x="229" y="630" width="120" height="60" as="geometry" />
        </mxCell>
        <mxCell id="sEIijlILCAp8ABGwAB-L-18" value="" style="edgeStyle=orthogonalEdgeStyle;rounded=0;orthogonalLoop=1;jettySize=auto;html=1;fontSize=12;" edge="1" parent="1" source="sEIijlILCAp8ABGwAB-L-19" target="sEIijlILCAp8ABGwAB-L-11">
          <mxGeometry relative="1" as="geometry" />
        </mxCell>
        <mxCell id="sEIijlILCAp8ABGwAB-L-19" value="更新最高峰值" style="rounded=0;whiteSpace=wrap;html=1;fontSize=12;" vertex="1" parent="1">
          <mxGeometry x="229" y="710" width="120" height="60" as="geometry" />
        </mxCell>
        <mxCell id="sEIijlILCAp8ABGwAB-L-20" value="" style="edgeStyle=orthogonalEdgeStyle;rounded=0;orthogonalLoop=1;jettySize=auto;html=1;fontSize=12;" edge="1" parent="1" source="sEIijlILCAp8ABGwAB-L-21" target="sEIijlILCAp8ABGwAB-L-23">
          <mxGeometry relative="1" as="geometry" />
        </mxCell>
        <mxCell id="sEIijlILCAp8ABGwAB-L-21" value="獲取數值：光感、CO、窗、PIR" style="whiteSpace=wrap;html=1;fontSize=12;" vertex="1" parent="1">
          <mxGeometry x="469" y="630" width="120" height="60" as="geometry" />
        </mxCell>
        <mxCell id="sEIijlILCAp8ABGwAB-L-22" value="" style="edgeStyle=orthogonalEdgeStyle;rounded=0;orthogonalLoop=1;jettySize=auto;html=1;fontSize=12;" edge="1" parent="1" source="sEIijlILCAp8ABGwAB-L-23" target="sEIijlILCAp8ABGwAB-L-25">
          <mxGeometry relative="1" as="geometry" />
        </mxCell>
        <mxCell id="sEIijlILCAp8ABGwAB-L-23" value="傳送數值：光感、CO、聲音峰值、窗、PIR" style="whiteSpace=wrap;html=1;fontSize=12;" vertex="1" parent="1">
          <mxGeometry x="469" y="710" width="120" height="60" as="geometry" />
        </mxCell>
        <mxCell id="sEIijlILCAp8ABGwAB-L-24" style="edgeStyle=orthogonalEdgeStyle;rounded=0;orthogonalLoop=1;jettySize=auto;html=1;exitX=0.5;exitY=1;exitDx=0;exitDy=0;fontSize=12;" edge="1" parent="1" source="sEIijlILCAp8ABGwAB-L-25">
          <mxGeometry relative="1" as="geometry">
            <mxPoint x="529" y="530" as="targetPoint" />
            <Array as="points">
              <mxPoint x="529" y="890" />
              <mxPoint x="649" y="890" />
              <mxPoint x="649" y="530" />
            </Array>
          </mxGeometry>
        </mxCell>
        <mxCell id="sEIijlILCAp8ABGwAB-L-25" value="聲音峰值歸零" style="whiteSpace=wrap;html=1;fontSize=12;" vertex="1" parent="1">
          <mxGeometry x="469" y="790" width="120" height="60" as="geometry" />
        </mxCell>
        <mxCell id="sEIijlILCAp8ABGwAB-L-31" value="" style="edgeStyle=orthogonalEdgeStyle;rounded=0;orthogonalLoop=1;jettySize=auto;html=1;fontSize=12;" edge="1" parent="1" source="sEIijlILCAp8ABGwAB-L-27" target="sEIijlILCAp8ABGwAB-L-4">
          <mxGeometry relative="1" as="geometry" />
        </mxCell>
        <mxCell id="sEIijlILCAp8ABGwAB-L-27" value="程式開始" style="shape=mxgraph.flowchart.terminator;strokeWidth=1;gradientDirection=north;fontStyle=0;html=1;fillColor=default;strokeColor=default;fontSize=12;" vertex="1" parent="1">
          <mxGeometry x="349" y="270" width="120" height="40" as="geometry" />
        </mxCell>
      </root>
    </mxGraphModel>
  </diagram>
</mxfile>
